<svg width="306" height="232" viewBox="0 0 306 232" fill="none" xmlns="http://www.w3.org/2000/svg">
<path d="M14 68H22V153.333H14V68Z" fill="#999DD4"/>
<path d="M28 62C28 67.5229 23.5228 72 18 72C12.4772 72 8 67.5229 8 62C8 56.4772 12.4772 52 18 52C23.5228 52 28 56.4772 28 62Z" fill="#4A50A3"/>
<path fill-rule="evenodd" clip-rule="evenodd" d="M174 76H86C53.9675 76 28 101.967 28 134C28 166.033 53.9675 192 86 192H174C206.033 192 232 166.033 232 134C232 101.967 206.033 76 174 76ZM86 68C49.5492 68 20 97.5492 20 134C20 170.451 49.5492 200 86 200H174C210.451 200 240 170.451 240 134C240 97.5492 210.451 68 174 68H86Z" fill="#999DD4"/>
<path d="M66 159C66 177.225 51.2254 192 33 192C14.7746 192 0 177.225 0 159C0 140.775 14.7746 126 33 126C51.2254 126 66 140.775 66 159Z" fill="#4A50A3"/>
<path d="M260 159C260 177.225 245.225 192 227 192C208.775 192 194 177.225 194 159C194 140.775 208.775 126 227 126C245.225 126 260 140.775 260 159Z" fill="#4A50A3"/>
<path d="M34 138C34 110.386 56.3858 88 84 88H176C203.614 88 226 110.386 226 138V182C226 209.614 203.614 232 176 232H84C56.3858 232 34 209.614 34 182V138Z" fill="#616AE9"/>
<path d="M132 88H176C203.614 88 226 110.386 226 138V182C226 209.614 203.614 232 176 232H132V88Z" fill="#7E86F6"/>
<path d="M54 154C54 131.909 71.9086 114 94 114H166C188.091 114 206 131.909 206 154V164C206 186.091 188.091 204 166 204H94C71.9086 204 54 186.091 54 164V154Z" fill="#F4F4F5"/>
<path d="M132 114H166C188.091 114 206 131.909 206 154V164C206 186.091 188.091 204 166 204H132V114Z" fill="#FBFBFB"/>
<path d="M142 163C146.418 163 150.114 166.648 148.923 170.902C148.766 171.464 148.592 172.019 148.401 172.567C147.346 175.6 145.799 178.356 143.849 180.678C141.899 182.999 139.584 184.841 137.036 186.097C134.489 187.353 131.758 188 129 188C126.242 188 123.511 187.353 120.964 186.097C118.416 184.841 116.101 182.999 114.151 180.678C112.201 178.356 110.654 175.6 109.599 172.567C109.408 172.019 109.234 171.464 109.077 170.902C107.886 166.648 111.582 163 116 163H142Z" fill="#999DD4"/>
<path d="M94 175C94 179.971 88.6274 184 82 184C75.3726 184 70 179.971 70 175C70 170.029 75.3726 166 82 166C88.6274 166 94 170.029 94 175Z" fill="#FFC4D1"/>
<path d="M188 175C188 179.971 182.627 184 176 184C169.373 184 164 179.971 164 175C164 170.029 169.373 166 176 166C182.627 166 188 170.029 188 175Z" fill="#FFC4D1"/>
<path d="M94 162C94 166.418 90.4183 170 86 170C81.5817 170 78 166.418 78 162C78 157.582 81.5817 154 86 154C90.4183 154 94 157.582 94 162Z" fill="#6D6D6D"/>
<path d="M180 162C180 166.418 176.418 170 172 170C167.582 170 164 166.418 164 162C164 157.582 167.582 154 172 154C176.418 154 180 157.582 180 162Z" fill="#6D6D6D"/>
<path fill-rule="evenodd" clip-rule="evenodd" d="M184 0C172.954 0 164 8.9543 164 20V74C164 85.0456 172.954 94 184 94H196.141L195.531 116.153C195.487 117.743 197.226 118.745 198.58 117.911L234.443 95.8001C235.11 95.3891 235.425 94.6869 235.391 94H286C297.046 94 306 85.0457 306 74V20C306 8.9543 297.046 0 286 0H184Z" fill="url(#paint0_linear_52_8)"/>
<path d="M190 24C190 21.7909 191.791 20 194 20H256C258.209 20 260 21.7909 260 24C260 26.2091 258.209 28 256 28H194C191.791 28 190 26.2091 190 24Z" fill="#7E86F6"/>
<path d="M190 48C190 45.7909 191.791 44 194 44H280C282.209 44 284 45.7909 284 48C284 50.2091 282.209 52 280 52H194C191.791 52 190 50.2091 190 48Z" fill="#7E86F6"/>
<path d="M190 72C190 69.7909 191.791 68 194 68H240C242.209 68 244 69.7909 244 72C244 74.2091 242.209 76 240 76H194C191.791 76 190 74.2091 190 72Z" fill="#7E86F6"/>
<defs>
<linearGradient id="paint0_linear_52_8" x1="153" y1="0" x2="153" y2="232" gradientUnits="userSpaceOnUse">
<stop stop-color="#D0FAFF"/>
<stop offset="1" stop-color="#93DFFF"/>
</linearGradient>
</defs>
</svg>
