<?xml version="1.0" encoding="UTF-8"?>
<!-- Generator: Adobe Illustrator 27.8.0, SVG Export Plug-In . SVG Version: 6.00 Build 0)  -->
<svg xmlns="http://www.w3.org/2000/svg" xmlns:xlink="http://www.w3.org/1999/xlink" version="1.1" id="Layer_1" x="0px" y="0px" viewBox="0 0 110.1 22.9" style="enable-background:new 0 0 110.1 22.9;" xml:space="preserve" class="fill-current">
<style type="text/css">
	 .st0 {
        fill: #cc3333 !important;
      }
      .st1 {
        fill: currentColor !important;
      }
      @media (prefers-color-scheme: dark) {
        .st1 {
          fill: white !important;
        }
      }
</style>
<g>
	<path class="st0" d="M110.1,17.7c-2,0-3.9,0-5.9,0c0-2,0-3.9,0-5.9c2,0,4,0,5.9,0C110.1,13.7,110.1,15.7,110.1,17.7z" fill="currentColor" stroke="currentColor"></path>
	<path class="st1" d="M53.2,10c1.2-2.2,2.9-3.3,5.3-3.4c3.4-0.1,5.4,1.7,5.5,5.1c0.1,3.5,0,6.9,0,10.5c-1.6,0-3.1,0-4.8,0   c0-0.3,0-0.7,0-1c0-2.6,0-5.1-0.1-7.7c-0.1-1.9-0.8-2.7-2.1-2.7c-1.5-0.1-2.7,0.9-3,2.5c-0.1,0.7-0.2,1.4-0.2,2.1   c0,2.2,0,4.4,0,6.7c-1.6,0-3.1,0-4.8,0c0-0.5,0-1,0-1.5c0-2.6,0-5.2-0.2-7.7c-0.1-1.2-0.7-1.8-1.7-2s-2.2,0.2-2.8,1.1   c-0.2,0.4-0.5,0.8-0.5,1.3c-0.1,0.7-0.2,1.3-0.2,2c0,2.3,0,4.6,0,7c-1.6,0-3.1,0-4.7,0c0-5,0-10.1,0-15.2c1.2,0,2.4,0,3.6,0   c0.2,0,0.4,0.3,0.4,0.6c0.1,0.6,0.2,1.1,0.3,1.9c1.4-1.9,3.1-2.9,5.3-2.9C50.9,6.6,52.4,7.7,53.2,10z" fill="currentColor" stroke="currentColor"></path>
	<path class="st1" d="M68.1,7c1.6,0,3.1,0,4.8,0c0,0.3,0,0.7,0,1c0,2.5,0,5,0,7.6c0,2,0.8,2.9,2.3,3.1c1.7,0.2,3-0.8,3.4-2.6   c0.1-0.6,0.2-1.3,0.2-1.9c0-2.4,0-4.7,0-7.1c1.6,0,3.1,0,4.7,0c0,5,0,10.1,0,15.2c-1.3,0-2.5,0-3.9,0c-0.1-0.7-0.2-1.5-0.4-2.3   c-0.4,0.5-0.7,0.9-1.1,1.2c-1.9,1.8-5.4,2.1-7.7,0.8c-1.6-0.9-2.4-2.5-2.4-4.2C68,14.1,68.1,10.6,68.1,7z" fill="currentColor" stroke="currentColor"></path>
	<path class="st1" d="M12.2,4.9c0,5.9,0,11.6,0,17.3c-1.7,0-3.2,0-4.9,0c0-5.7,0-11.4,0-17.3c-2.2,0-4.4,0-6.6,0c0-1.4,0-2.8,0-4.2   c6,0,12,0,18.1,0c0,1.4,0,2.7,0,4.1C16.6,4.9,14.4,4.9,12.2,4.9z" fill="currentColor" stroke="currentColor"></path>
	<path class="st1" d="M35.4,16c-3.5,0-6.9,0-10.3,0c0.1,1.5,0.7,2.6,2.1,3.1c1.9,0.7,3.6,0.2,5.2-1.6c0.9,0.6,1.9,1.1,2.9,1.7   c-1.2,2.3-3.2,3.2-5.6,3.4c-1.2,0.1-2.5,0-3.7-0.2c-2.9-0.6-4.8-2.6-5.2-5.6c-0.2-1.5-0.2-3.1,0.1-4.6c0.6-3.4,3.2-5.4,6.7-5.6   c1,0,2.1,0,3.1,0.3c2.8,0.7,4.5,2.9,4.8,6C35.4,13.9,35.4,14.9,35.4,16z M30.9,13.2c0-2-1-3.2-2.7-3.2c-1.9,0-3,1.1-3.1,3.2   C27.1,13.2,29,13.2,30.9,13.2z" fill="currentColor" stroke="currentColor"></path>
	<path class="st1" d="M86.4,19.8c0.9-0.9,1.6-1.7,2.5-2.5c1,1.3,2.4,2.1,4,2.1c0.7,0,1.4,0,2.1-0.2c0.4-0.1,0.8-0.7,0.8-1   s-0.4-0.9-0.8-1c-0.8-0.3-1.6-0.4-2.4-0.6c-0.9-0.3-1.9-0.5-2.8-0.9c-1.8-0.9-2.7-2.3-2.6-4.3c0.1-1.9,1-3.2,2.7-4   c3-1.4,7.6-0.8,9.7,1.4c0.1,0.2,0.3,0.3,0.5,0.6c-0.9,0.8-1.7,1.5-2.6,2.3c-1.2-1.3-2.7-1.8-4.6-1.5c-0.7,0.1-1.3,0.3-1.4,1.1   s0.6,1.1,1.2,1.3c1,0.3,2,0.4,3,0.7c0.7,0.2,1.4,0.4,2.1,0.7c1.5,0.8,2.4,2,2.4,3.7c0,1.9-0.6,3.4-2.3,4.2   c-3.2,1.5-6.5,1.4-9.6-0.4C87.5,21,87,20.4,86.4,19.8z" fill="currentColor" stroke="currentColor"></path>
</g>
</svg>
